<svg xmlns="http://www.w3.org/2000/svg" class="el-tooltip" style="margin: auto;" color-interpolation-filters="sRGB"
     viewBox="0 0 200 60" preserveAspectRatio="none" width="100%" height="100%"
     version="1.0">
    <!--<rect fill="" fill-opacity="0" x="0" y="0" width="100%" height="100%"/>-->
    <g class="icon-svg-group iconsvg" fill="#7e318e" >
        <g class="iconsvg-imagesvg" transform="translate(0)">
            <rect fill="#7e318e" fill-opacity="1" stroke="#7e318e" stroke-width="2" x="0" y="0" width="59.1589"
                  height="59.1589"/>
            <svg class="imagesvg-svg" filter="url(&quot;#colors7486490581&quot;)" x="7.17943" y="5.91589" width="44.8"
                 height="47.3271">
                <svg viewBox="0 0 248.9 262.94">
                    <defs>
                        <linearGradient id="a23e52ae7-e3b7-4365-8172-6f79b4d059c8" gradientUnits="userSpaceOnUse"
                                        x1="-24.31" y1="144.44" x2="161.18" y2="37.93">
                            <stop stop-color="#aa65a6" offset="0"/>
                            <stop stop-color="#7e318e" offset="0.61"/>
                            <stop stop-color="#472b8a" offset="1"/>
                        </linearGradient>
                        <linearGradient id="bdfda22cf-2f14-4d86-9065-d38092da0188" gradientUnits="userSpaceOnUse"
                                        x1="97.8" y1="287.05" x2="97.8" y2="85.38">
                            <stop stop-color="#fed72b" offset="0"/>
                            <stop stop-color="#ed6f17" offset="0.67"/>
                            <stop stop-color="#ea6718" offset="0.72"/>
                            <stop stop-color="#e0511b" offset="0.81"/>
                            <stop stop-color="#d12e1f" offset="0.91"/>
                            <stop stop-color="#c30d23" offset="0.99"/>
                        </linearGradient>
                        <linearGradient id="c52f3512c-ee22-4320-9d5f-acedbde3d72b" gradientUnits="userSpaceOnUse"
                                        x1="195.93" y1="-0.66" x2="195.93" y2="114.33">
                            <stop stop-color="#aa65a6" offset="0"/>
                            <stop stop-color="#7e318e" offset="0.61"/>
                            <stop stop-color="#472b8a" offset="1"/>
                        </linearGradient>
                        <linearGradient id="d17639c88-3373-4baa-b25b-9df456d0214a" gradientUnits="userSpaceOnUse"
                                        x1="108.12" y1="153.31" x2="248.9" y2="153.31">
                            <stop stop-color="#fed72b" offset="0"/>
                            <stop stop-color="#ed6f17" offset="0.67"/>
                            <stop stop-color="#ea6718" offset="0.72"/>
                            <stop stop-color="#e0511b" offset="0.81"/>
                            <stop stop-color="#d12e1f" offset="0.91"/>
                            <stop stop-color="#c30d23" offset="0.99"/>
                        </linearGradient>
                        <linearGradient id="ed7f21bed-6f0f-42e8-b97b-e06d8e74e6ac" gradientUnits="userSpaceOnUse"
                                        x1="227.45" y1="126.97" x2="173.33" y2="262.25">
                            <stop stop-color="#aa65a6" offset="0"/>
                            <stop stop-color="#7e318e" offset="0.61"/>
                            <stop stop-color="#472b8a" offset="1"/>
                        </linearGradient>
                    </defs>
                    <g style="isolation: isolate;">
                        <g fill-rule="evenodd">
                            <path fill="url(#a23e52ae7-e3b7-4365-8172-6f79b4d059c8)"
                                  d="M 152.66 0 l 72.2 44.07 L 0 173.31 l 24.1 -78.98 L 152.66 0 Z"/>
                            <path style="mix-blend-mode: multiply;" fill="url(#bdfda22cf-2f14-4d86-9065-d38092da0188)"
                                  d="M 128.91 262.94 h 66.7 L 24.1 94.33 L 0 173.31 l 128.91 89.63 Z"/>
                            <path style="mix-blend-mode: multiply;" fill="url(#c52f3512c-ee22-4320-9d5f-acedbde3d72b)"
                                  d="M 152.66 0 l 72.2 44.07 l 14.34 56.91 l -55.57 8.77 L 152.66 0 Z"/>
                            <path fill="url(#d17639c88-3373-4baa-b25b-9df456d0214a)"
                                  d="M 215.41 122.9 l -107.29 29.23 l 140.78 31.58 l -33.49 -60.81 Z"/>
                            <path style="mix-blend-mode: multiply;" fill="url(#ed7f21bed-6f0f-42e8-b97b-e06d8e74e6ac)"
                                  d="M 128.91 262.94 h 66.7 l 53.29 -79.23 l -33.49 -60.81 l -86.5 140.04 Z"/>
                        </g>
                    </g>
                </svg>
            </svg>
            <defs>
                <filter id="colors7486490581">
                    <feColorMatrix type="matrix" values="0 0 0 0 0.996094 0 0 0 0 0.996094 0 0 0 0 0.996094 0 0 0 1 0"/>
                </filter>
            </defs>
        </g>
        <g transform="translate(66.1589 12.7794)">
            <g class="tp-name iconsvg-namesvg">
                <g>
                    <path transform="translate(-1.4 26.68)"
                          d="M 11.28 -19.48 L 21.28 -19.48 L 21.28 -0.12 L 21.28 -0.12 Q 21.28 1.52 20.9 2.8 L 20.9 2.8 L 20.9 2.8 Q 20.52 4.08 19.8 4.96 L 19.8 4.96 L 19.8 4.96 Q 18.88 6.08 17.58 6.5 L 17.58 6.5 L 17.58 6.5 Q 16.28 6.92 13.8 6.92 L 13.8 6.92 L 3.12 6.92 L 3.12 2.76 L 13.08 2.76 L 13.08 2.76 Q 14.84 2.76 15.38 2.22 L 15.38 2.22 L 15.38 2.22 Q 15.92 1.68 15.92 0 L 15.92 0 L 11 0 L 11 0 Q 8.64 0 7.1 -0.5 L 7.1 -0.5 L 7.1 -0.5 Q 5.56 -1 4.32 -2.16 L 4.32 -2.16 L 4.32 -2.16 Q 1.4 -4.92 1.4 -9.76 L 1.4 -9.76 L 1.4 -9.76 Q 1.4 -15.28 4.96 -17.8 L 4.96 -17.8 L 4.96 -17.8 Q 6.24 -18.72 7.66 -19.1 L 7.66 -19.1 L 7.66 -19.1 Q 9.08 -19.48 11.28 -19.48 L 11.28 -19.48 Z M 15.92 -4.16 L 15.92 -15.32 L 11.48 -15.32 L 11.48 -15.32 Q 6.84 -15.32 6.84 -9.72 L 6.84 -9.72 L 6.84 -9.72 Q 6.84 -7 8.1 -5.58 L 8.1 -5.58 L 8.1 -5.58 Q 9.36 -4.16 11.76 -4.16 L 11.76 -4.16 L 15.92 -4.16 Z M 31.16 -11.84 L 42.44 -11.84 L 42.44 -7.68 L 31.16 -7.68 L 31.16 -7.68 Q 31.32 -5.76 32.4 -4.96 L 32.4 -4.96 L 32.4 -4.96 Q 33.48 -4.16 35.92 -4.16 L 35.92 -4.16 L 42.44 -4.16 L 42.44 0 L 35.32 0 L 35.32 0 Q 33 0 31.54 -0.42 L 31.54 -0.42 L 31.54 -0.42 Q 30.08 -0.84 28.8 -1.8 L 28.8 -1.8 L 28.8 -1.8 Q 25.24 -4.56 25.24 -10 L 25.24 -10 L 25.24 -10 Q 25.24 -13.52 27.12 -16.16 L 27.12 -16.16 L 27.12 -16.16 Q 28.4 -17.96 30.2 -18.72 L 30.2 -18.72 L 30.2 -18.72 Q 32 -19.48 34.92 -19.48 L 34.92 -19.48 L 42.44 -19.48 L 42.44 -15.32 L 35.32 -15.32 L 35.32 -15.32 Q 33.12 -15.32 32.24 -14.58 L 32.24 -14.58 L 32.24 -14.58 Q 31.36 -13.84 31.16 -11.84 L 31.16 -11.84 Z M 51.44 -11.84 L 62.72 -11.84 L 62.72 -7.68 L 51.44 -7.68 L 51.44 -7.68 Q 51.6 -5.76 52.68 -4.96 L 52.68 -4.96 L 52.68 -4.96 Q 53.76 -4.16 56.2 -4.16 L 56.2 -4.16 L 62.72 -4.16 L 62.72 0 L 55.6 0 L 55.6 0 Q 53.28 0 51.82 -0.42 L 51.82 -0.42 L 51.82 -0.42 Q 50.36 -0.84 49.08 -1.8 L 49.08 -1.8 L 49.08 -1.8 Q 45.52 -4.56 45.52 -10 L 45.52 -10 L 45.52 -10 Q 45.52 -13.52 47.4 -16.16 L 47.4 -16.16 L 47.4 -16.16 Q 48.68 -17.96 50.48 -18.72 L 50.48 -18.72 L 50.48 -18.72 Q 52.28 -19.48 55.2 -19.48 L 55.2 -19.48 L 62.72 -19.48 L 62.72 -15.32 L 55.6 -15.32 L 55.6 -15.32 Q 53.4 -15.32 52.52 -14.58 L 52.52 -14.58 L 52.52 -14.58 Q 51.64 -13.84 51.44 -11.84 L 51.44 -11.84 Z M 72.44 -26.68 L 72.44 0 L 67.08 0 L 67.08 -26.68 L 72.44 -26.68 Z M 84.6 -11.84 L 91.16 -11.84 L 91.16 -11.84 Q 91.16 -13.88 90.34 -14.6 L 90.34 -14.6 L 90.34 -14.6 Q 89.52 -15.32 87.08 -15.32 L 87.08 -15.32 L 78.04 -15.32 L 78.04 -19.48 L 87.08 -19.48 L 87.08 -19.48 Q 89.52 -19.48 90.44 -19.38 L 90.44 -19.38 L 90.44 -19.38 Q 91.36 -19.28 92.32 -19 L 92.32 -19 L 92.32 -19 Q 96.76 -17.32 96.52 -10.96 L 96.52 -10.96 L 96.52 0 L 85.24 0 L 85.24 0 Q 82.2 0 81.04 -0.18 L 81.04 -0.18 L 81.04 -0.18 Q 79.88 -0.36 79 -0.92 L 79 -0.92 L 79 -0.92 Q 76.64 -2.52 76.64 -5.76 L 76.64 -5.76 L 76.64 -5.76 Q 76.64 -7.72 77.58 -9.26 L 77.58 -9.26 L 77.58 -9.26 Q 78.52 -10.8 80.08 -11.36 L 80.08 -11.36 L 80.08 -11.36 Q 81.44 -11.84 84.6 -11.84 L 84.6 -11.84 Z M 91.16 -4.16 L 91.16 -7.68 L 85 -7.68 L 84.08 -7.68 L 84.08 -7.68 Q 83.16 -7.68 82.62 -7.2 L 82.62 -7.2 L 82.62 -7.2 Q 82.08 -6.72 82.08 -5.88 L 82.08 -5.88 L 82.08 -5.88 Q 82.08 -4.96 82.74 -4.56 L 82.74 -4.56 L 82.74 -4.56 Q 83.4 -4.16 85 -4.16 L 85 -4.16 L 91.16 -4.16 Z M 99.56 -19.48 L 102.96 -19.48 L 102.96 -26.68 L 108.32 -26.68 L 108.32 -19.48 L 113.28 -19.48 L 113.28 -15.32 L 108.32 -15.32 L 108.32 -8.24 L 108.32 -8.24 Q 108.32 -5.76 108.76 -5.12 L 108.76 -5.12 L 108.76 -5.12 Q 109.44 -4.16 111.16 -4.16 L 111.16 -4.16 L 113.28 -4.16 L 113.28 0 L 109.4 0 L 109.4 0 Q 105.92 0 104.44 -1.68 L 104.44 -1.68 L 104.44 -1.68 Q 102.96 -3.36 102.96 -7.32 L 102.96 -7.32 L 102.96 -15.32 L 99.56 -15.32 L 99.56 -19.48 Z M 125.92 -19.76 L 125.92 -19.76 L 125.92 -19.76 Q 131.32 -19.76 133.88 -16.64 L 133.88 -16.64 L 133.88 -16.64 Q 136.24 -13.8 136.24 -9.48 L 136.24 -9.48 L 136.24 -9.48 Q 136.24 -4.92 133.28 -2.2 L 133.28 -2.2 L 133.28 -2.2 Q 130.56 0.28 125.84 0.28 L 125.84 0.28 L 125.84 0.28 Q 120.96 0.28 118.2 -2.52 L 118.2 -2.52 L 118.2 -2.52 Q 115.64 -5.04 115.64 -9.88 L 115.64 -9.88 L 115.64 -9.88 Q 115.64 -13.96 118.08 -16.68 L 118.08 -16.68 L 118.08 -16.68 Q 120.8 -19.72 125.92 -19.76 Z M 125.96 -15.68 L 125.96 -15.68 L 125.96 -15.68 Q 121.12 -15.68 121.12 -9.68 L 121.12 -9.68 L 121.12 -9.68 Q 121.12 -7.24 121.92 -5.96 L 121.92 -5.96 L 121.92 -5.96 Q 123.24 -3.8 126 -3.8 L 126 -3.8 L 126 -3.8 Q 130.76 -3.8 130.76 -9.76 L 130.76 -9.76 L 130.76 -9.76 Q 130.76 -15.6 125.96 -15.68 Z"/>
                </g> <!---->
            </g> <!---->
        </g>
    </g>
</svg>
